<?xml version="1.0" standalone="no"?><!DOCTYPE svg PUBLIC "-//W3C//DTD SVG 1.1//EN" "http://www.w3.org/Graphics/SVG/1.1/DTD/svg11.dtd"><svg t="1612318935330" class="icon" viewBox="0 0 1024 1024" version="1.1" xmlns="http://www.w3.org/2000/svg" p-id="3013" xmlns:xlink="http://www.w3.org/1999/xlink" width="200" height="200"><defs><style type="text/css"></style></defs><path d="M557.11 212.88h-87.1v-32.15c0-21.35 17.31-38.67 38.67-38.67h9.76c21.35 0 38.67 17.31 38.67 38.67v32.15z" fill="#E0754B" p-id="3014"></path><path d="M557.11 230.88h-87.09c-9.94 0-18-8.06-18-18v-32.15c0-31.25 25.42-56.67 56.67-56.67h9.76c31.25 0 56.67 25.42 56.67 56.67v32.15c-0.01 9.94-8.07 18-18.01 18z m-69.09-36h51.09v-14.15c0-11.4-9.27-20.67-20.67-20.67h-9.76c-11.4 0-20.67 9.27-20.67 20.67v14.15z" fill="#2F1E6C" p-id="3015"></path><path d="M798.86 623.54c0-13.22-4.83-25.96-13.77-37.92V403.81c0-106.39-86.25-192.64-192.64-192.64H419.99c-106.39 0-192.64 86.25-192.64 192.64v181.96c-8.97 11.88-13.77 24.59-13.77 37.77 0 68.88 130.84 171.21 292.46 171.21 233.1 0.01 292.82-149.8 292.82-171.21z" fill="#E0754B" p-id="3016"></path><path d="M506.03 812.75c-77.16 0-154.08-22.25-216.61-62.66-58.77-37.98-93.85-85.29-93.85-126.55 0-15.08 4.63-29.68 13.77-43.49V403.81c0-116.15 94.49-210.64 210.64-210.64h172.46c116.15 0 210.64 94.49 210.64 210.64v176.14c9.14 13.9 13.77 28.53 13.77 43.59 0 19.3-20.62 66.64-64.88 106.94-26.73 24.34-58.88 43.65-95.54 57.38-44.06 16.52-94.67 24.89-150.4 24.89z m-86.04-583.58c-96.3 0-174.64 78.34-174.64 174.64v181.96c0 3.92-1.28 7.72-3.64 10.85-6.73 8.91-10.14 17.96-10.14 26.92 0 12.74 6.84 28.67 19.25 44.85 13.83 18.02 33.93 35.82 58.14 51.46 32.88 21.25 102.21 56.9 197.07 56.9 50.72 0 96.55-7.41 136.21-22.01 32.18-11.85 60.34-28.43 83.72-49.27 42.56-37.95 54.41-76.3 54.9-82.1-0.04-8.92-3.47-17.99-10.18-26.97a17.964 17.964 0 0 1-3.58-10.78V403.8c0-96.3-78.34-174.64-174.64-174.64H419.99z m360.87 394.37z" fill="#2F1E6C" p-id="3017"></path><path d="M521.45 669.01c-35.28 0-71.59-3.07-108.59-9.19-102.64-16.99-174.34-51.31-177.34-52.76-8.95-4.33-12.69-15.09-8.36-24.04s15.08-12.69 24.03-8.37c0.7 0.34 70.82 33.79 168.59 49.83 57 9.34 112.14 11.03 163.89 5 64.2-7.48 123.39-26.93 175.93-57.81 8.57-5.04 19.6-2.17 24.64 6.4 5.04 8.57 2.17 19.6-6.4 24.64-57.06 33.54-121.21 54.61-190.67 62.61-21.42 2.46-43.37 3.69-65.72 3.69z" fill="#2F1E6C" p-id="3018"></path><path d="M559.7 523.5h-92.07c-7.6 0-14.37-4.77-16.94-11.92a17.992 17.992 0 0 1 5.49-19.97l53.38-44.01h-41.93c-9.94 0-18-8.06-18-18s8.06-18 18-18h92.07c7.6 0 14.37 4.77 16.94 11.92 2.57 7.15 0.37 15.14-5.49 19.97l-53.38 44.01h41.93c9.94 0 18 8.06 18 18s-8.06 18-18 18z" fill="#2F1E6C" p-id="3019"></path></svg>